<?xml version="1.0" encoding="UTF-8"?>
<svg width="128px" height="38px" viewBox="0 0 128 38" version="1.1" xmlns="http://www.w3.org/2000/svg" xmlns:xlink="http://www.w3.org/1999/xlink">
    <g id="Page-1" stroke="none" stroke-width="1" fill="#F04A23" fill-rule="evenodd">
        <g id="Group-2">
            <g id="Glyph" transform="translate(0.000000, 0.000000)">
                <path d="M30.6155044,4.43523249 C34.0706729,7.3785257 36.2973367,11.5247312 36.9883691,16.003655 C37.039556,16.3875627 37.0907426,16.7970645 37.1163379,17.1809718 C37.1739257,17.5264908 37.1883228,17.8720089 37.2027195,18.2175261 L37.2187157,18.5630428 C37.1419335,23.4770614 35.4783354,27.7768302 32.0999478,31.3343736 C28.8495311,34.7639471 24.8312962,36.6834869 20.1220285,37.0929905 C16.8204191,37.3745242 13.6467833,36.7858631 10.6267104,35.3526069 C10.3451795,35.2246371 10.1148338,35.1990448 9.83330255,35.3270132 C7.58104321,36.1716105 5.32878574,37.0162082 3.05093299,37.8608032 C2.84618241,37.9375851 2.69261889,37.8096152 2.71821346,37.6048657 C3.05093313,35.5573568 3.40924746,33.5098444 3.76756058,31.4879334 C3.81874875,31.1296216 3.89553081,30.7457128 3.9467179,30.3873964 C3.97231154,30.2082409 3.94671792,30.0034896 3.81874877,29.8755213 C1.92480374,27.3929194 0.696299317,24.6031884 0.235610319,21.5319268 C-0.634580753,15.6709341 0.901049867,10.4497894 4.91928443,5.99645809 C7.93935871,2.66925751 12.1111541,0.570561634 16.5900763,0.109872529 C21.8624101,-0.427598439 26.5716812,1.00565722 30.6155044,4.43523249 Z M17.1026208,2.87372911 C13.0331993,3.28323035 9.55243609,4.9980186 6.8650828,8.06928048 C3.28194441,12.1642968 2.10462792,16.9247528 3.28194429,22.2482756 C3.81941461,24.6796902 4.94554431,26.8295722 6.55795702,28.7235196 C6.6603329,28.8514882 6.73711333,29.0306441 6.73711333,29.18421 C6.55795713,30.4383066 6.32761216,31.6668123 6.12286042,32.8953185 C6.07167358,33.2024436 5.99489112,33.5095707 5.94370445,33.8166993 C5.89251746,34.0982327 5.96929797,34.149419 6.19964305,34.0726369 C6.25082988,34.0726369 6.27642519,34.0470427 6.32761218,34.0214521 C7.73527347,33.5095754 9.14293485,32.9721025 10.5250025,32.4346336 C10.8065349,32.3322598 11.0112864,32.3322588 11.2672242,32.4858211 C14.1849238,34.0214512 17.2817781,34.5845109 20.532198,34.1750146 C28.3293072,33.2413739 34.2108133,26.710195 34.3994696,18.8983254 L34.4040585,18.5627595 C34.3528743,17.8461308 34.3016871,17.1039114 34.1993084,16.3872819 C33.0987731,8.06928048 25.4718056,2.0291322 17.1026208,2.87372911 Z" id="Shape"></path>
                <path d="M22.5522405,9.57958984 C23.0129302,9.80993485 23.3200554,10.1682491 23.3968378,10.6289372 C23.5248069,11.2687834 23.8831191,11.6270977 24.4461866,11.8574427 C24.7533119,11.9854119 25.0348457,12.1645678 25.3419708,12.3181326 C25.6490961,12.4716955 25.9050343,12.7020405 26.0585987,13.0347614 C26.1353813,13.188324 26.3145376,13.2906998 26.4681023,13.3674822 C26.928792,13.5722334 27.4150733,13.7257957 27.8501672,13.9049525 C28.1317009,14.0329217 28.2084788,14.1864845 28.1317006,14.493612 C28.0037316,15.0054885 27.6966073,15.4149898 27.3126997,15.7477105 C27.2103257,15.8244934 27.0567609,15.87568 26.9031961,15.87568 C26.3657241,15.9012734 25.8026605,15.9012734 25.2651926,15.87568 C24.9836589,15.87568 24.7789114,15.9268673 24.6509417,16.2084009 C24.5229727,16.5155263 24.3438165,16.8226531 24.2158475,17.1297789 C24.1390652,17.3601236 24.0366913,17.3601239 23.8319398,17.2577483 C22.782591,16.7202777 21.7332463,16.1828073 20.6838976,15.6709299 C20.530333,15.5941478 20.4791461,15.542961 20.5815238,15.3638048 C20.7606799,15.0054909 20.9142444,14.6471764 21.067805,14.2888643 C21.2213696,13.9817384 21.3749303,13.6490181 21.5796818,13.367486 C21.9891846,12.855609 22.1683408,12.2669496 22.2451231,11.6271033 C22.3219053,11.0128507 22.424279,10.398598 22.5010613,9.78434629 C22.5010555,9.74595098 22.5154493,9.70755951 22.5334446,9.6475737 L22.5522405,9.57958984 Z M25.0098801,12.7789307 C24.881911,12.7789307 24.7795372,12.8301176 24.702755,12.9068999 C24.6515681,12.9324933 24.6259727,12.9836822 24.6003812,13.0348691 C24.5747858,13.086056 24.5491943,13.1372449 24.5491943,13.1884318 C24.5491943,13.2652141 24.6515681,13.3419945 24.7283503,13.3931833 L24.7795372,13.3931814 C24.881911,13.4187748 24.9842886,13.3931814 25.0866624,13.3675879 C25.1634447,13.3675879 25.2146316,13.3419945 25.2914138,13.3419945 C25.3426007,13.316401 25.4193829,13.316401 25.4705698,13.2908076 C25.598539,13.2140253 25.4705699,13.0604626 25.3937876,12.9836822 C25.2914138,12.8813064 25.1634447,12.7789307 25.0098801,12.7789307 Z" id="Shape"></path>
                <path d="M22.47619,26.7019739 C21.9899087,25.2175292 21.5036228,23.7586811 21.0429328,22.2998327 C20.96615,22.0438944 20.7869939,22.0438945 20.5822424,22.0438945 C18.4835479,22.0438945 16.4104439,22.0694874 14.3117489,22.0183 C13.3647771,21.967113 13.3135884,22.0438945 12.9808694,22.8628988 C12.4433988,24.1937776 11.8291462,25.4990656 11.2148933,26.8043517 C11.1892998,26.8811339 11.1125176,26.9323204 11.0101418,26.9323204 C10.8821724,26.9323204 10.8053902,26.829947 10.8053902,26.727569 C10.8821725,23.9634324 10.9845464,21.2248915 11.0869221,18.4607548 C11.1125156,18.1280339 11.0613287,17.7953154 10.8821706,17.488188 C10.2935112,16.4644343 10.0119793,15.3127112 9.80722962,14.1609878 C9.70485382,13.5723286 9.6536669,12.9836714 9.60247803,12.395012 C9.60247803,12.3182297 9.60247803,12.164667 9.70485382,12.1390735 C9.80722962,12.1134801 9.88401,12.2670428 9.90960542,12.3438251 C10.2679197,13.1116405 10.5750451,13.879456 10.9333595,14.6472714 C11.2660803,15.3638999 11.649988,16.0805265 12.1874585,16.6947791 C12.2642409,16.7971552 12.3666146,16.8739357 12.4689905,16.9763111 C12.6993356,17.1810629 12.9296807,17.2578431 13.236806,17.2322494 C14.7468435,17.0530935 16.2824749,16.8739356 17.7925105,16.6947791 C18.432357,16.6179969 19.0722027,16.5156228 19.7120492,16.4644343 C19.9168007,16.4388406 20.1215503,16.4900279 20.300709,16.5924038 C21.401245,17.129874 22.4761855,17.7185336 23.5511265,18.2560041 C23.7046914,18.3327862 23.7558796,18.4351598 23.7302828,18.6143181 C23.4999396,20.7386084 23.2951874,22.8373028 23.064841,24.9615916 L22.8856861,26.7787552 C22.8856861,26.8043514 22.8856861,26.8043519 22.8856861,26.8299427 C22.8600905,26.9323165 22.7833107,27.009099 22.6809333,27.009099 C22.6041508,27.009099 22.5017777,26.9579124 22.4761819,26.8811302 L22.5017851,26.7787552 C22.5017851,26.7531605 22.47619,26.7275686 22.47619,26.7019739 Z" id="Shape"></path>
            </g>
            <g id="Group" transform="translate(45.587891, 8.274902)">
                <path d="M4.47892427,12.4386103 L4.47892427,7.34543397 L7.37102944,7.34543397 L7.37102944,3.78788856 L4.47892427,3.78788856 L4.47892427,0 L0,0 L0,12.1826714 C0,14.9979946 0.511876941,16.0729358 1.58681791,17.0966908 C2.48260284,17.9412881 3.81348198,18.6323204 6.01455484,18.6323204 L8.29240608,18.6323204 L8.29240608,14.7420555 L6.91033976,14.7420555 C5.96336825,14.7420555 5.32352163,14.5884937 4.99080079,14.2557727 C4.65808011,13.9230516 4.47892427,13.3343955 4.47892427,12.4386103 Z" id="Shape"></path>
                <path d="M55.0021488,4.91404375 C53.8504258,3.48078858 52.2380159,2.76416016 50.1905089,2.76416016 C48.6292833,2.76416016 47.2984082,3.14806787 46.1978678,3.91588339 C45.148518,3.14806787 43.8176438,2.76416016 42.2052268,2.76416016 C40.2089108,2.76416016 38.6476829,3.48078858 37.4959598,4.91404375 C36.3442372,3.48078858 34.7318281,2.76416016 32.6843199,2.76416016 C30.6880031,2.76416016 29.0755859,3.37841288 27.821489,4.63251191 C26.7977351,5.65626585 26.2858582,7.24308347 26.2858582,9.34178022 L26.2858582,18.5811605 L31.1230936,18.5811605 L31.1230936,10.0328137 C31.1230936,9.36737415 31.1742845,8.90668399 31.251063,8.6251523 C31.532597,7.80615028 32.1468478,7.39664618 33.0682283,7.39664618 C33.7080743,7.39664618 34.219951,7.62699169 34.5782633,8.08768 C34.859797,8.44599388 35.0133613,9.03465097 35.0133613,9.85365537 L35.0133613,18.5811605 L39.850597,18.5811605 L39.850597,10.1351894 C39.850597,9.23940502 39.9529707,8.59955871 40.1833145,8.266838 C40.5416265,7.70377381 41.0535033,7.42224028 41.7701356,7.42224028 C42.4355769,7.42224028 42.9218584,7.65258494 43.2545762,8.11327308 C43.5361091,8.42039842 43.6896755,9.00905764 43.6896755,9.85365537 L43.6896755,18.5811605 L43.7920479,18.5811605 L48.5781008,18.5811605 L48.6292924,18.5811605 L48.6292924,10.0328137 C48.6292924,9.36737415 48.6804815,8.90668399 48.7572598,8.6251523 C49.0387943,7.80615028 49.6530469,7.39664618 50.5744261,7.39664618 C51.2142729,7.39664618 51.7261489,7.62699169 52.0844605,8.08768 C52.3659953,8.44599388 52.5195598,9.03465097 52.5195598,9.85365537 L52.5195598,18.5811605 L57.3567962,18.5811605 L57.3567962,10.1351894 C57.3567962,9.23940502 57.4591689,8.59955871 57.6895124,8.266838 C58.0478239,7.70377381 58.5597016,7.42224028 59.2763335,7.42224028 C59.9417748,7.42224028 60.4280555,7.65258494 60.7607714,8.11327308 C61.0423074,8.42039842 61.1958707,9.00905764 61.1958707,9.85365537 L61.1958707,18.5811605 L66.1098938,18.5811605 L66.1098938,9.1370288 C66.1098938,7.29427251 65.6492074,5.83542206 64.7022317,4.76048137 C63.4993089,3.42960192 61.8357114,2.76416016 59.7114165,2.76416016 L59.7114165,2.76416016 C57.7151014,2.76416016 56.1538719,3.48078858 55.0021488,4.91404375 Z" id="Shape"></path>
                <path d="M74.6057554,12.4383927 L70.9202436,3.3013916 L66.0830078,3.3013916 L72.4302791,18.6321076 C72.1999364,19.4767057 72.0207759,19.6046737 71.5600899,20.142142 C71.0994036,20.6796143 70.3571759,20.9355526 69.3334217,21.0123311 C68.8215448,21.0379253 68.488828,21.1147043 67.8489818,20.9867346 L67.9001725,24.3907179 C68.6679879,24.5442833 69.4358034,24.5186867 70.2036187,24.5186867 C70.9714342,24.5186867 71.6624711,24.4419041 72.276722,24.2883442 C72.8909725,24.1347788 73.4028578,23.9044354 73.8379406,23.6229024 C74.2474361,23.3413674 74.6313438,22.9574609 74.9640762,22.4967744 C75.2967927,22.0360833 75.6295103,21.3706479 75.98783,20.4748636 L76.9603928,17.8386957 L82.4118805,3.32698701 L77.6514304,3.32698701 L77.6514304,3.3013916 L74.6057554,12.4383927 Z" id="Shape"></path>
                <path d="M17.0462821,2.78979492 L17.2956462,2.79341155 C21.6850907,2.92089756 25.2102488,6.402793 25.185257,10.6982961 C25.185257,15.074844 21.550802,18.6067972 17.0462821,18.6067972 C12.5673579,18.6067972 8.90744019,15.074844 8.90744019,10.6982961 C8.90744019,6.32174747 12.5417625,2.78979492 17.0462821,2.78979492 L17.0462821,2.78979492 Z M17.0964878,6.78234863 C15.2537274,6.78234863 13.7692871,8.59951193 13.7692871,10.8261781 C13.7692871,13.0528447 15.2537274,14.8700075 17.0964878,14.8700075 L17.0964878,14.8700075 L17.2736631,14.864382 C19.0334743,14.7523451 20.4236884,12.9810168 20.4236884,10.8261781 C20.4236884,8.59951193 18.9392486,6.78234863 17.0964878,6.78234863 Z" id="Shape"></path>
            </g>
        </g>
    </g>
</svg>
